<?xml version="1.0" standalone="no"?>
<!DOCTYPE svg PUBLIC "-//W3C//DTD SVG 20010904//EN"
 "http://www.w3.org/TR/2001/REC-SVG-20010904/DTD/svg10.dtd">
<svg version="1.0" xmlns="http://www.w3.org/2000/svg"
 width="200.000000pt" height="200.000000pt" viewBox="0 0 200.000000 200.000000"
 preserveAspectRatio="xMidYMid meet">
<metadata>
Created by potrace 1.10, written by Peter Selinger 2001-2011
</metadata>
<g transform="translate(0.000000,200.000000) scale(0.100000,-0.100000)"
fill="#000000" stroke="none">
<path d="M776 1808 c-4 -24 -17 -63 -30 -88 -21 -41 -26 -45 -78 -56 -31 -6
-75 -22 -99 -37 -46 -27 -179 -158 -179 -176 0 -28 40 -4 116 69 69 66 92 82
139 95 47 14 64 15 108 5 29 -7 59 -16 68 -21 11 -6 21 -4 29 6 9 11 7 17 -12
28 -13 8 -35 17 -49 21 l-26 6 23 47 c13 27 27 69 30 96 6 43 5 47 -14 47 -16
0 -21 -9 -26 -42z"/>
<path d="M1182 1805 c3 -25 17 -68 30 -95 l25 -50 -26 -6 c-44 -11 -74 -34
-62 -48 9 -11 24 -9 79 7 65 19 70 19 126 3 48 -14 71 -30 140 -96 76 -73 116
-97 116 -69 0 18 -133 149 -180 177 -24 14 -69 31 -100 37 -51 10 -56 14 -77
55 -12 25 -25 64 -29 88 -5 33 -10 42 -26 42 -18 0 -20 -5 -16 -45z"/>
<path d="M303 1532 c-103 -36 -175 -104 -144 -135 10 -9 16 -6 32 15 27 36 78
67 147 87 35 11 57 23 57 32 0 21 -33 21 -92 1z"/>
<path d="M1605 1540 c-11 -17 3 -27 52 -39 61 -16 126 -53 151 -88 16 -22 23
-25 33 -16 32 32 -53 108 -155 138 -58 18 -73 18 -81 5z"/>
<path d="M877 1354 c-4 -4 -7 -22 -7 -40 0 -116 -57 -243 -152 -338 -62 -62
-79 -96 -48 -96 5 0 41 30 79 68 75 74 120 150 146 251 24 92 13 185 -18 155z"/>
<path d="M1097 1354 c-12 -12 -8 -97 8 -157 25 -96 72 -176 146 -249 72 -71
86 -78 96 -52 4 10 -12 31 -49 64 -96 86 -151 193 -166 327 -6 61 -18 83 -35
67z"/>
<path d="M987 1114 c-4 -4 -7 -144 -7 -311 0 -297 0 -303 20 -303 20 0 20 5
18 307 -3 291 -7 331 -31 307z"/>
<path d="M269 1013 c-11 -31 3 -125 26 -159 14 -21 11 -26 -56 -93 -38 -39
-74 -71 -79 -71 -6 0 -10 -9 -10 -20 0 -11 6 -20 14 -20 17 0 92 62 134 111
l32 36 77 -71 c115 -106 167 -158 185 -186 13 -20 19 -22 29 -13 21 21 -5 61
-89 138 -196 180 -222 216 -222 309 0 39 -4 55 -15 60 -11 4 -19 -3 -26 -21z"/>
<path d="M1690 975 c0 -94 -26 -129 -222 -310 -84 -77 -110 -117 -89 -138 10
-9 16 -7 29 13 18 28 70 80 185 186 l77 71 32 -36 c42 -49 117 -111 134 -111
8 0 14 9 14 20 0 11 -4 20 -10 20 -5 0 -41 32 -79 71 -68 68 -70 71 -55 94 18
27 33 115 26 150 -3 16 -11 25 -23 25 -16 0 -19 -8 -19 -55z"/>
<path d="M864 589 c-10 -12 -38 -32 -61 -46 -42 -24 -54 -45 -33 -58 22 -14
140 75 140 106 0 25 -22 24 -46 -2z"/>
<path d="M1090 591 c0 -31 118 -120 140 -106 21 13 9 34 -33 58 -23 14 -51 34
-61 46 -24 26 -46 27 -46 2z"/>
<path d="M487 564 c-12 -12 -8 -333 4 -357 30 -58 13 -57 509 -57 416 0 457 2
476 18 39 31 44 55 44 225 0 132 -3 166 -14 170 -8 3 -17 3 -20 0 -3 -4 -6
-80 -6 -170 0 -150 -2 -165 -20 -183 -19 -19 -33 -20 -458 -20 -362 0 -442 2
-458 14 -17 13 -19 31 -24 187 -5 161 -11 195 -33 173z"/>
<path d="M984 377 c-3 -8 -4 -36 -2 -63 2 -36 7 -49 18 -49 20 0 22 116 3 122
-7 3 -16 -2 -19 -10z"/>
</g>
</svg>
